<svg width="100" height="44" viewBox="0 0 100 44" fill="none" xmlns="http://www.w3.org/2000/svg">
<path d="M37.1406 19.8818C41.1763 19.8818 44.1869 20.8484 46.1729 22.7812C48.1694 24.7141 49.168 27.6028 49.168 31.4473V32.4346C49.168 40.1448 45.1588 44 37.1406 44C29.1118 44 25.0977 40.1448 25.0977 32.4346V31.4473C25.0977 23.7371 29.1118 19.8818 37.1406 19.8818ZM88.1406 19.8818C92.0913 19.8818 94.943 20.4766 96.6953 21.666C98.4581 22.8448 99.3397 24.4533 99.3398 26.4922V26.6523C99.3398 27.9371 99.0108 29.015 98.3525 29.8857C97.6941 30.7459 96.7115 31.3517 95.4053 31.7021C96.8601 32.0208 97.9648 32.6525 98.7188 33.5977C99.4726 34.5428 99.8496 35.7324 99.8496 37.166V37.3096C99.8495 39.4121 98.9468 41.0527 97.1416 42.2314C95.3468 43.4103 92.3411 44 88.125 44C83.9194 44 80.9138 43.4103 79.1084 42.2314C77.3031 41.0527 76.4005 39.4121 76.4004 37.3096V37.166C76.4004 35.7324 76.7773 34.5428 77.5312 33.5977C78.2852 32.6526 79.395 32.0208 80.8604 31.7021C79.5543 31.3517 78.5725 30.7458 77.9141 29.8857C77.2557 29.015 76.9259 27.9372 76.9258 26.6523V26.4922C76.9259 24.4534 77.8076 22.8448 79.5703 21.666C81.3332 20.4766 84.19 19.8819 88.1406 19.8818ZM11.7881 19.8818C15.622 19.8818 18.3837 20.4926 20.0723 21.7139C21.7607 22.9352 22.6045 24.6715 22.6045 26.9229V27.0498C22.6045 28.2072 22.3874 29.211 21.9521 30.0605C21.5274 30.8994 20.8635 31.6272 19.9609 32.2432C19.069 32.8591 17.8951 33.3899 16.4404 33.8359L9.12793 36.0029C8.44828 36.2259 7.96544 36.4918 7.67871 36.7998C7.40262 37.1078 7.26466 37.5057 7.26465 37.9941V38.1221H22.7002V43.3623H0V40.1768C0 38.5094 0.2229 37.139 0.668945 36.0664C1.12561 34.9938 1.80534 34.1281 2.70801 33.4697C3.62133 32.8007 4.8378 32.2279 6.35645 31.75L12.6328 29.9658C13.5884 29.6473 14.2573 29.2913 14.6396 28.8984C15.0325 28.5056 15.2294 28.0115 15.2295 27.417V27.3213C15.2295 26.5673 14.9476 25.9825 14.3848 25.5684C13.8325 25.1437 12.9457 24.9316 11.7246 24.9316C10.3652 24.9316 9.3667 25.2025 8.72949 25.7441C8.10309 26.2751 7.76305 27.0719 7.70996 28.1338V28.1494H0.541992C0.552612 26.3334 0.924437 24.8201 1.65723 23.6094C2.40064 22.3987 3.59513 21.4741 5.24121 20.8369C6.89786 20.1998 9.08024 19.8819 11.7881 19.8818ZM70.6895 34.1709H74.1621V39.3799H70.6895V43.3623H63.4893V39.3799H50.5859V34.3936L62.9316 20.5186H70.6895V34.1709ZM88.125 33.6934C86.5638 33.6934 85.4324 33.9323 84.7314 34.4102C84.0308 34.888 83.6807 35.541 83.6807 36.3691V36.5127C83.6807 37.3517 84.0255 38.0104 84.7158 38.4883C85.4168 38.9661 86.5533 39.2051 88.125 39.2051C89.6964 39.2051 90.8272 38.966 91.5176 38.4883C92.2185 38.0104 92.5693 37.3517 92.5693 36.5127V36.3691C92.5693 35.5409 92.2185 34.888 91.5176 34.4102C90.8273 33.9323 89.6966 33.6934 88.125 33.6934ZM37.1406 25.123C35.6538 25.1231 34.5013 25.6058 33.6836 26.5723C32.8765 27.5387 32.4727 29.0361 32.4727 31.0645V32.8164C32.4727 34.8234 32.8766 36.3159 33.6836 37.293C34.5013 38.27 35.6538 38.7588 37.1406 38.7588C38.6062 38.7588 39.7477 38.27 40.5654 37.293C41.3831 36.3159 41.792 34.8236 41.792 32.8164V31.0645C41.792 29.0467 41.3832 27.5543 40.5654 26.5879C39.7583 25.611 38.6167 25.123 37.1406 25.123ZM56.1777 34.1709H63.4893V25.9189L56.1777 34.1709ZM88.1406 24.6768C86.739 24.6768 85.7142 24.9048 85.0664 25.3613C84.4186 25.818 84.0947 26.4397 84.0947 27.2256V27.3691C84.0948 28.1548 84.4188 28.7809 85.0664 29.248C85.7142 29.7047 86.7389 29.9336 88.1406 29.9336C89.5425 29.9336 90.562 29.7047 91.1992 29.248C91.8363 28.7808 92.1552 28.1548 92.1553 27.3691V27.2256C92.1553 26.4397 91.8364 25.818 91.1992 25.3613C90.562 24.9048 89.5423 24.6768 88.1406 24.6768ZM47.0811 3.75391C52.605 3.75391 54.5996 5.70614 54.6025 9.1709V10.2686H45.1201V10.2793C45.1201 11.48 45.812 12.1513 47.0723 12.1514C48.1225 12.1514 48.6793 11.6726 48.8066 11.0107V10.9785H54.54C54.3921 13.2482 52.5344 15.0078 47.126 15.0078C41.4541 15.0078 39.3535 12.9736 39.3535 9.55469V9.20801C39.3535 5.77771 41.4508 3.75399 47.0811 3.75391ZM79.1455 3.75391C84.7314 3.75396 86.832 5.77768 86.832 9.20801V9.55469C86.832 12.985 84.7314 15.0078 79.1455 15.0078C73.5683 15.0078 71.4678 12.9736 71.4678 9.55469V9.20801C71.4678 5.77764 73.5683 3.75391 79.1455 3.75391ZM29.6484 9.96777C29.6486 10.8729 30.1308 11.3397 31.0654 11.3398C32.1276 11.3398 32.7461 10.7525 32.7461 9.81543V4.16992H38.4268V14.584H32.7461V12.7646C32.0211 14.2002 30.5419 14.9619 28.3467 14.9619C25.385 14.9619 23.9678 13.5893 23.9678 11.1992V4.16992H29.6484V9.96777ZM6.56445 5.88965C7.37219 4.4854 8.85449 3.79395 10.9434 3.79395C14.3548 3.79395 16.1504 5.55394 16.1533 9.15625V9.60352C16.1533 13.2028 14.3577 14.9541 10.9434 14.9541C8.85449 14.9541 7.37219 14.2712 6.56445 12.8584V14.5869H0.883789V0H6.56445V5.88965ZM70.541 14.5869H64.8604V12.8584C64.0526 14.2712 62.5703 14.9541 60.4814 14.9541C57.0672 14.9541 55.2715 13.2057 55.2715 9.60352V9.15625C55.2715 5.55398 57.0671 3.79398 60.4814 3.79395C62.5703 3.79395 64.0526 4.4854 64.8604 5.88965V0H70.541V14.5869ZM95.6045 4.16992H98.9541V7.27344H95.6045V9.99023C95.6045 10.5891 96.0012 10.956 97.2939 10.9561C97.9951 10.9561 98.6255 10.8847 98.9658 10.8359V14.5586C98.5455 14.6389 97.2641 14.8223 95.5098 14.8223C91.1015 14.8222 89.9238 13.6838 89.9238 11.5059V7.27344H87.498V4.16992H89.9238V1.07715H95.6045V4.16992ZM22.7783 14.5869H17.0977V0H22.7783V14.5869ZM8.36914 7.43066C7.27445 7.43072 6.38672 8.29125 6.38672 9.35156C6.38696 10.4117 7.2746 11.2714 8.36914 11.2715C9.46373 11.2715 10.3513 10.4117 10.3516 9.35156C10.3516 8.29121 9.46387 7.43066 8.36914 7.43066ZM63.127 7.43066C62.0322 7.43066 61.1445 8.29121 61.1445 9.35156C61.1448 10.4117 62.0324 11.2715 63.127 11.2715C64.2214 11.2713 65.1062 10.4116 65.1094 9.35156C65.1094 8.2913 64.2216 7.43081 63.127 7.43066ZM79.0391 7.43066C77.9443 7.43066 77.0566 8.29121 77.0566 9.35156C77.0569 10.4117 77.9445 11.2715 79.0391 11.2715C80.1335 11.2713 81.0183 10.4116 81.0215 9.35156C81.0215 8.29131 80.1337 7.43081 79.0391 7.43066ZM47.04 6.57129C45.895 6.57129 45.2236 7.13027 45.1289 8.19922H48.8242V8.11914C48.8035 7.15051 48.1939 6.5713 47.04 6.57129Z" fill="#795F3B"/>
</svg>
